<?xml version="1.0" encoding="UTF-8"?>
<svg xmlns="http://www.w3.org/2000/svg" xmlns:xlink="http://www.w3.org/1999/xlink" width="23px" height="24px" viewBox="0 0 23 24" version="1.1">
<defs>
<linearGradient id="linear0" gradientUnits="userSpaceOnUse" x1="0.5" y1="0" x2="0.5" y2="1" gradientTransform="matrix(18.398438,0,0,-20.566406,2.453125,22.265625)">
<stop offset="0" style="stop-color:rgb(56.470588%,7.45098%,99.607843%);stop-opacity:1;"/>
<stop offset="1" style="stop-color:rgb(30.196078%,0%,70.588235%);stop-opacity:1;"/>
</linearGradient>
</defs>
<g id="surface1">
<path style=" stroke:none;fill-rule:evenodd;fill:rgb(68.235294%,32.156863%,100%);fill-opacity:1;" d="M 11.882812 0.691406 L 21.5625 6.164062 C 21.695312 6.238281 21.777344 6.375 21.777344 6.527344 L 21.777344 17.472656 C 21.777344 17.625 21.695312 17.761719 21.5625 17.835938 L 11.882812 23.308594 C 11.75 23.382812 11.589844 23.382812 11.457031 23.308594 L 1.777344 17.835938 C 1.644531 17.761719 1.5625 17.625 1.5625 17.472656 L 1.5625 6.527344 C 1.5625 6.375 1.644531 6.238281 1.777344 6.164062 L 11.457031 0.691406 C 11.589844 0.617188 11.75 0.617188 11.882812 0.691406 Z M 11.882812 0.691406 "/>
<path style=" stroke:none;fill-rule:evenodd;fill:url(#linear0);" d="M 11.863281 22.265625 L 20.636719 17.304688 C 20.769531 17.230469 20.851562 17.09375 20.851562 16.945312 L 20.851562 7.019531 C 20.851562 6.871094 20.769531 6.734375 20.636719 6.660156 L 11.863281 1.699219 C 11.734375 1.625 11.570312 1.625 11.4375 1.699219 L 2.664062 6.660156 C 2.535156 6.734375 2.453125 6.871094 2.453125 7.019531 L 2.453125 16.945312 C 2.453125 17.09375 2.535156 17.230469 2.664062 17.304688 L 11.4375 22.265625 C 11.570312 22.339844 11.734375 22.339844 11.863281 22.265625 Z M 11.863281 22.265625 "/>
<path style=" stroke:none;fill-rule:evenodd;fill:rgb(56.470588%,7.45098%,99.607843%);fill-opacity:1;" d="M 5.808594 6.472656 L 17.496094 6.472656 L 17.496094 7.121094 L 5.808594 7.121094 Z M 5.808594 6.472656 "/>
<path style=" stroke:none;fill-rule:evenodd;fill:rgb(56.470588%,7.45098%,99.607843%);fill-opacity:1;" d="M 5.808594 8.527344 L 17.496094 8.527344 L 17.496094 9.175781 L 5.808594 9.175781 Z M 5.808594 8.527344 "/>
<path style=" stroke:none;fill-rule:evenodd;fill:rgb(56.470588%,7.45098%,99.607843%);fill-opacity:1;" d="M 5.808594 10.578125 L 17.496094 10.578125 L 17.496094 11.226562 L 5.808594 11.226562 Z M 5.808594 10.578125 "/>
<path style=" stroke:none;fill-rule:evenodd;fill:rgb(56.470588%,7.45098%,99.607843%);fill-opacity:1;" d="M 5.808594 12.628906 L 17.496094 12.628906 L 17.496094 13.277344 L 5.808594 13.277344 Z M 5.808594 12.628906 "/>
<path style=" stroke:none;fill-rule:evenodd;fill:rgb(56.470588%,7.45098%,99.607843%);fill-opacity:1;" d="M 5.808594 14.683594 L 17.496094 14.683594 L 17.496094 15.328125 L 5.808594 15.328125 Z M 5.808594 14.683594 "/>
<path style=" stroke:none;fill-rule:evenodd;fill:rgb(30.196078%,0%,70.588235%);fill-opacity:1;" d="M 11.675781 22.429688 L 2.457031 17.339844 C 2.410156 17.3125 2.394531 17.253906 2.417969 17.207031 C 2.429688 17.195312 2.441406 17.179688 2.457031 17.171875 L 11.726562 12.035156 L 20.851562 17.164062 C 20.898438 17.191406 20.917969 17.25 20.890625 17.292969 C 20.878906 17.308594 20.867188 17.320312 20.851562 17.332031 L 11.773438 22.429688 C 11.742188 22.449219 11.707031 22.449219 11.675781 22.429688 Z M 11.675781 22.429688 "/>
<path style=" stroke:none;fill-rule:nonzero;fill:rgb(56.470588%,7.45098%,99.607843%);fill-opacity:1;" d="M 6.777344 16.636719 L 14.238281 21.101562 C 14.324219 21.152344 14.4375 21.125 14.492188 21.039062 C 14.542969 20.953125 14.515625 20.84375 14.429688 20.792969 L 6.96875 16.328125 C 6.882812 16.277344 6.769531 16.304688 6.714844 16.386719 C 6.664062 16.472656 6.691406 16.582031 6.777344 16.636719 Z M 6.777344 16.636719 "/>
<path style=" stroke:none;fill-rule:nonzero;fill:rgb(56.470588%,7.45098%,99.607843%);fill-opacity:1;" d="M 11.261719 14.117188 L 18.722656 18.578125 C 18.808594 18.632812 18.921875 18.605469 18.976562 18.519531 C 19.027344 18.433594 19 18.324219 18.914062 18.273438 L 11.453125 13.808594 C 11.367188 13.757812 11.253906 13.785156 11.199219 13.867188 C 11.148438 13.953125 11.175781 14.0625 11.261719 14.117188 Z M 11.261719 14.117188 "/>
<path style=" stroke:none;fill-rule:evenodd;fill:rgb(100%,100%,100%);fill-opacity:1;" d="M 11.71875 16.15625 L 15.113281 14.234375 C 15.15625 14.214844 15.179688 14.171875 15.179688 14.125 L 15.179688 6.816406 C 15.179688 6.769531 15.15625 6.726562 15.113281 6.703125 L 11.71875 4.78125 C 11.675781 4.761719 11.625 4.761719 11.585938 4.78125 L 8.1875 6.703125 C 8.148438 6.726562 8.125 6.769531 8.125 6.816406 L 8.125 14.125 C 8.125 14.171875 8.148438 14.214844 8.1875 14.234375 L 11.585938 16.15625 C 11.625 16.179688 11.675781 16.179688 11.71875 16.15625 Z M 11.71875 16.15625 "/>
<path style=" stroke:none;fill-rule:nonzero;fill:rgb(30.196078%,0%,70.588235%);fill-opacity:1;" d="M 11.074219 9.304688 L 9.9375 8.191406 C 9.871094 8.121094 9.871094 8.015625 9.9375 7.949219 L 10.183594 7.707031 C 10.253906 7.636719 10.363281 7.636719 10.433594 7.707031 L 11.195312 8.457031 L 12.835938 6.847656 C 12.902344 6.78125 13.011719 6.78125 13.082031 6.847656 L 13.328125 7.089844 C 13.394531 7.15625 13.394531 7.265625 13.328125 7.332031 L 11.320312 9.304688 C 11.253906 9.371094 11.140625 9.371094 11.074219 9.304688 Z M 11.074219 9.304688 "/>
<path style=" stroke:none;fill-rule:evenodd;fill:rgb(92.156863%,83.137255%,100%);fill-opacity:1;" d="M 7.324219 18.351562 L 9.914062 16.886719 C 9.957031 16.863281 9.980469 16.824219 9.980469 16.777344 L 9.980469 13.847656 C 9.980469 13.800781 9.957031 13.757812 9.914062 13.734375 L 7.324219 12.269531 C 7.285156 12.25 7.234375 12.25 7.195312 12.269531 L 4.601562 13.734375 C 4.5625 13.757812 4.539062 13.800781 4.539062 13.847656 L 4.539062 16.777344 C 4.539062 16.824219 4.5625 16.863281 4.601562 16.886719 L 7.195312 18.351562 C 7.234375 18.375 7.285156 18.375 7.324219 18.351562 Z M 7.324219 18.351562 "/>
<path style=" stroke:none;fill-rule:nonzero;fill:rgb(56.470588%,7.45098%,99.607843%);fill-opacity:1;" d="M 7.257812 16.554688 C 7.960938 16.554688 8.527344 15.996094 8.527344 15.3125 C 8.527344 14.625 7.960938 14.070312 7.257812 14.070312 C 6.558594 14.070312 5.992188 14.625 5.992188 15.3125 C 5.992188 15.996094 6.558594 16.554688 7.257812 16.554688 Z M 7.257812 16.121094 C 6.800781 16.121094 6.433594 15.757812 6.433594 15.3125 C 6.433594 14.863281 6.800781 14.503906 7.257812 14.503906 C 7.714844 14.503906 8.085938 14.863281 8.085938 15.3125 C 8.085938 15.757812 7.714844 16.121094 7.257812 16.121094 Z M 7.257812 16.121094 "/>
<path style=" stroke:none;fill-rule:evenodd;fill:rgb(100%,100%,100%);fill-opacity:1;" d="M 14.777344 15.835938 C 14.777344 15.714844 14.675781 15.617188 14.554688 15.617188 C 14.433594 15.617188 14.335938 15.714844 14.335938 15.835938 C 14.335938 15.953125 14.433594 16.050781 14.554688 16.050781 C 14.675781 16.050781 14.777344 15.953125 14.777344 15.835938 Z M 14.777344 15.835938 "/>
<path style=" stroke:none;fill-rule:evenodd;fill:rgb(100%,100%,100%);fill-opacity:1;" d="M 15.328125 16.15625 C 15.328125 16.039062 15.230469 15.941406 15.105469 15.941406 C 14.984375 15.941406 14.886719 16.039062 14.886719 16.15625 C 14.886719 16.277344 14.984375 16.375 15.105469 16.375 C 15.230469 16.375 15.328125 16.277344 15.328125 16.15625 Z M 15.328125 16.15625 "/>
<path style=" stroke:none;fill-rule:evenodd;fill:rgb(100%,100%,100%);fill-opacity:1;" d="M 15.878906 16.480469 C 15.878906 16.363281 15.78125 16.265625 15.65625 16.265625 C 15.535156 16.265625 15.4375 16.363281 15.4375 16.480469 C 15.4375 16.601562 15.535156 16.699219 15.65625 16.699219 C 15.78125 16.699219 15.878906 16.601562 15.878906 16.480469 Z M 15.878906 16.480469 "/>
<path style=" stroke:none;fill-rule:evenodd;fill:rgb(100%,100%,100%);fill-opacity:1;" d="M 18.011719 17.777344 C 18.011719 17.660156 17.910156 17.5625 17.789062 17.5625 C 17.667969 17.5625 17.570312 17.660156 17.570312 17.777344 C 17.570312 17.898438 17.667969 17.992188 17.789062 17.992188 C 17.910156 17.992188 18.011719 17.898438 18.011719 17.777344 Z M 18.011719 17.777344 "/>
<path style=" stroke:none;fill-rule:evenodd;fill:rgb(100%,100%,100%);fill-opacity:1;" d="M 9.703125 17.992188 C 9.703125 17.875 9.605469 17.777344 9.484375 17.777344 C 9.359375 17.777344 9.261719 17.875 9.261719 17.992188 C 9.261719 18.113281 9.359375 18.210938 9.484375 18.210938 C 9.605469 18.210938 9.703125 18.113281 9.703125 17.992188 Z M 9.703125 17.992188 "/>
<path style=" stroke:none;fill-rule:evenodd;fill:rgb(100%,100%,100%);fill-opacity:1;" d="M 11.578125 19.144531 C 11.578125 19.027344 11.480469 18.929688 11.359375 18.929688 C 11.234375 18.929688 11.136719 19.027344 11.136719 19.144531 C 11.136719 19.265625 11.234375 19.363281 11.359375 19.363281 C 11.480469 19.363281 11.578125 19.265625 11.578125 19.144531 Z M 11.578125 19.144531 "/>
<path style=" stroke:none;fill-rule:evenodd;fill:rgb(100%,100%,100%);fill-opacity:1;" d="M 12.128906 19.46875 C 12.128906 19.351562 12.03125 19.253906 11.910156 19.253906 C 11.789062 19.253906 11.6875 19.351562 11.6875 19.46875 C 11.6875 19.589844 11.789062 19.6875 11.910156 19.6875 C 12.03125 19.6875 12.128906 19.589844 12.128906 19.46875 Z M 12.128906 19.46875 "/>
</g>
</svg>
